<?xml version="1.0" encoding="utf-8"?>
<!-- Generator: Adobe Illustrator 21.0.0, SVG Export Plug-In . SVG Version: 6.00 Build 0)  -->
<svg version="1.1" id="图层_1" xmlns="http://www.w3.org/2000/svg" xmlns:xlink="http://www.w3.org/1999/xlink" x="0px" y="0px"
	 viewBox="0 0 360 59.3" style="enable-background:new 0 0 360 59.3;" xml:space="preserve">
<style type="text/css">
	.st0{fill-rule:evenodd;clip-rule:evenodd;fill:#231815;}
	.st1{fill:#231815;}
	.st2{fill-rule:evenodd;clip-rule:evenodd;fill:#DA358C;}
	.st3{fill:#F57F17;}
</style>
<g>
	<g>
		<g>
			<g>
				<path class="st0" d="M165.7,20.3h-3.2v-1.6H161v3.1h3.3v1.6H161v-1.6h-1.6v1.6h-1.5v1.5h1.5v3.1h3.1v1.7h1.7v-1.7h3.1v-4.6h-1.6
					V20.3z M162.5,26.4H161v-1.6h1.6V26.4z M165.7,26.4h-1.5v-1.6h1.5V26.4z M175.2,24.9h1.6v-1.5h-1.6v-1.6h3.1v-1.5h-3.1v-1.6
					h-1.6v1.6h-3.1v1.5h3.1v1.6H172v1.5h1.6v1.6h-4.8v1.5h3.2v1.7h1.6v-1.7h1.6v1.7h1.6v-1.7h3.1v-1.5h-4.6V24.9z M205,21.8v1.6h1.6
					v-3.1h-4.7v-1.6h-1.6v1.6h-4.6v3.1h1.6v-1.6H205z M190.8,21.8h-6.2v1.6h4.6v4.6h3.1v-1.5h-1.5V21.8z M154.8,24.9h-1.6v1.6h1.6
					v7.9h1.5V23.3h-1.5V24.9z M193.9,24.9h1.7v-1.5h-1.7V24.9z M205,27.9v-4.6h-7.9v7.9h1.5v3.1h3.2v1.6h1.5v-3.1h-3.1v-1.6h4.8
					v-1.6h-3.2v-1.7H205z M201.8,24.9h1.5v1.6h-1.5V24.9z M200.2,29.6h-1.6v-1.7h1.6V29.6z M200.2,26.4h-1.6v-1.6h1.6V26.4z
					 M184.6,24.9h-1.7v3.1h-1.5v1.7h3.2V24.9z M187.7,26.4h-1.6v4.8h1.6V26.4z M157.9,31.2h4.6v-1.6h-4.6V31.2z M167.3,29.6h-1.6
					v1.6h1.6V29.6z M170.5,29.6v1.6h1.5v-1.6H170.5z M173.6,31.2h1.6v-1.6h-1.6V31.2z M164.2,37.5v-4.7h1.5v-1.6h-3.2v6.3H164.2z
					 M172,34.3h1.6v3.2h1.6v-3.2h3.1v-3.1h-1.6v1.6h-3.1v-1.6H172V34.3z M186.1,31.2h-1.5v1.6h1.5V31.2z M193.9,32.8h1.7v4.7h1.6
					v-6.3h-3.2V32.8z M206.5,35.9v-4.6H205v4.6H206.5z M157.9,34.3h1.5v1.6h1.6v-3.1h-3.1V34.3z M167.3,35.9v-3.1h-1.6v3.1H167.3z
					 M189.2,34.3h-4.6v-1.5h-1.7v3.1h7.9v-3.1h-1.6V34.3z M170.5,35.9h1.5v-1.6h-1.5V35.9z M157.9,37.5h1.5v-1.7h-1.5V37.5z
					 M168.8,37.5h1.7v-1.7h-1.7V37.5z M176.7,37.5h1.6v-1.7h-1.6V37.5z"/>
			</g>
		</g>
		<g>
			<path class="st1" d="M154.7,39.9h1.2c0.2,0,0.4,0,0.5,0.1c0.1,0.1,0.2,0.1,0.3,0.2c0.1,0.1,0.1,0.2,0.2,0.3c0,0.1,0,0.2,0,0.3
				c0,0.1,0,0.2,0,0.3c0,0.1-0.1,0.2-0.2,0.3c-0.1,0.1-0.2,0.2-0.3,0.2c-0.1,0.1-0.3,0.1-0.5,0.1h-0.7v1.4h-0.4V39.9z M155.2,41.3
				h0.6c0.1,0,0.2,0,0.3,0c0.1,0,0.2,0,0.2-0.1s0.1-0.1,0.2-0.2c0-0.1,0.1-0.2,0.1-0.3c0-0.1,0-0.2-0.1-0.3c0-0.1-0.1-0.1-0.2-0.2
				s-0.1-0.1-0.2-0.1c-0.1,0-0.2,0-0.3,0h-0.6V41.3z"/>
			<path class="st1" d="M159.9,39.9h0.4v3.3h-0.4V39.9z"/>
			<path class="st1" d="M164.4,41.4l-1.1-1.6h0.6l0.9,1.3l0.8-1.3h0.6l-1.1,1.6l1.2,1.7h-0.6l-0.9-1.4l-0.9,1.4h-0.6L164.4,41.4z"/>
			<path class="st1" d="M169.1,39.9h2.1v0.4h-1.7v1h1.6v0.4h-1.6v1.1h1.8v0.4h-2.2V39.9z"/>
			<path class="st1" d="M174.4,39.9h0.4v2.9h1.5v0.4h-2V39.9z"/>
			<path class="st1" d="M179.3,39.9h1.2c0.2,0,0.4,0,0.5,0.1c0.1,0.1,0.2,0.1,0.3,0.2c0.1,0.1,0.1,0.2,0.2,0.3c0,0.1,0,0.2,0,0.3
				c0,0.1,0,0.2-0.1,0.3c0,0.1-0.1,0.2-0.2,0.3c-0.1,0.1-0.2,0.1-0.3,0.2c-0.1,0.1-0.2,0.1-0.3,0.1l0.9,1.5h-0.6l-0.8-1.4h-0.5v1.4
				h-0.4V39.9z M179.7,41.3h0.6c0.1,0,0.2,0,0.3,0c0.1,0,0.2,0,0.2-0.1c0.1,0,0.1-0.1,0.2-0.2c0-0.1,0.1-0.2,0.1-0.3
				c0-0.1,0-0.2-0.1-0.3c0-0.1-0.1-0.1-0.2-0.2c-0.1,0-0.1-0.1-0.2-0.1c-0.1,0-0.2,0-0.3,0h-0.6V41.3z"/>
			<path class="st1" d="M186.1,43.3c-0.3,0-0.5,0-0.7-0.1c-0.2-0.1-0.4-0.2-0.5-0.4c-0.1-0.2-0.3-0.3-0.4-0.5
				c-0.1-0.2-0.1-0.4-0.1-0.7c0-0.2,0-0.5,0.1-0.7c0.1-0.2,0.2-0.4,0.4-0.5c0.1-0.2,0.3-0.3,0.5-0.4c0.2-0.1,0.4-0.1,0.7-0.1
				c0.3,0,0.5,0,0.7,0.1c0.2,0.1,0.4,0.2,0.5,0.4c0.1,0.2,0.3,0.3,0.4,0.5c0.1,0.2,0.1,0.4,0.1,0.7c0,0.2,0,0.5-0.1,0.7
				c-0.1,0.2-0.2,0.4-0.4,0.5c-0.1,0.2-0.3,0.3-0.5,0.4C186.6,43.2,186.3,43.3,186.1,43.3z M186.1,42.8c0.2,0,0.4,0,0.5-0.1
				c0.2-0.1,0.3-0.2,0.4-0.3c0.1-0.1,0.2-0.3,0.3-0.4c0.1-0.2,0.1-0.3,0.1-0.5s0-0.3-0.1-0.5c-0.1-0.2-0.1-0.3-0.3-0.4
				c-0.1-0.1-0.2-0.2-0.4-0.3c-0.2-0.1-0.3-0.1-0.5-0.1c-0.2,0-0.4,0-0.5,0.1c-0.2,0.1-0.3,0.2-0.4,0.3c-0.1,0.1-0.2,0.3-0.3,0.4
				c-0.1,0.2-0.1,0.3-0.1,0.5s0,0.3,0.1,0.5c0.1,0.2,0.1,0.3,0.3,0.4c0.1,0.1,0.2,0.2,0.4,0.3C185.7,42.8,185.9,42.8,186.1,42.8z"/>
			<path class="st1" d="M192.4,43.3c-0.3,0-0.5,0-0.7-0.1c-0.2-0.1-0.4-0.2-0.5-0.4c-0.1-0.2-0.3-0.3-0.4-0.5
				c-0.1-0.2-0.1-0.4-0.1-0.7c0-0.2,0-0.5,0.1-0.7c0.1-0.2,0.2-0.4,0.4-0.5c0.1-0.2,0.3-0.3,0.5-0.4c0.2-0.1,0.4-0.1,0.7-0.1
				c0.3,0,0.5,0,0.7,0.1c0.2,0.1,0.4,0.2,0.5,0.4c0.1,0.2,0.3,0.3,0.4,0.5c0.1,0.2,0.1,0.4,0.1,0.7c0,0.2,0,0.5-0.1,0.7
				c-0.1,0.2-0.2,0.4-0.4,0.5c-0.1,0.2-0.3,0.3-0.5,0.4C192.9,43.2,192.6,43.3,192.4,43.3z M192.4,42.8c0.2,0,0.4,0,0.5-0.1
				c0.2-0.1,0.3-0.2,0.4-0.3c0.1-0.1,0.2-0.3,0.3-0.4c0.1-0.2,0.1-0.3,0.1-0.5s0-0.3-0.1-0.5c-0.1-0.2-0.1-0.3-0.3-0.4
				c-0.1-0.1-0.2-0.2-0.4-0.3c-0.2-0.1-0.3-0.1-0.5-0.1c-0.2,0-0.4,0-0.5,0.1c-0.2,0.1-0.3,0.2-0.4,0.3c-0.1,0.1-0.2,0.3-0.3,0.4
				c-0.1,0.2-0.1,0.3-0.1,0.5s0,0.3,0.1,0.5c0.1,0.2,0.1,0.3,0.3,0.4c0.1,0.1,0.2,0.2,0.4,0.3C192,42.8,192.2,42.8,192.4,42.8z"/>
			<path class="st1" d="M197.2,39.9h0.7l1,2.5h0l1-2.5h0.7v3.3h-0.4v-2.7h0l-1.1,2.7h-0.3l-1.1-2.7h0v2.7h-0.4V39.9z"/>
		</g>
		<path class="st2" d="M203.2,39.7h3.6v3.6h-3.6V39.7z"/>
	</g>
	<rect x="50.4" y="29" class="st3" width="91.5" height="1.6"/>
	<rect x="218.1" y="29" class="st3" width="91.5" height="1.6"/>
</g>
</svg>
