<svg xmlns="http://www.w3.org/2000/svg" viewBox="0 0 24 24"><defs><style>.cls-1{fill:none;}.cls-2{fill:#ef4538;}.cls-3,.cls-4{fill:#fff;}.cls-3{opacity:0.3;isolation:isolate;}</style></defs><g id="图层_2" data-name="图层 2"><g id="图层_1-2" data-name="图层 1"><rect id="矩形_655" data-name="矩形 655" class="cls-1" width="24" height="24"/><path id="_58129001_shock_color_grid" data-name=" 58129001 shock_color grid" class="cls-2" d="M12,2A10,10,0,1,0,22,12,10,10,0,0,0,12,2Z"/><path id="路径_1387" data-name="路径 1387" class="cls-3" d="M12,2A10,10,0,1,0,22,12,10,10,0,0,0,12,2Zm0,18a8,8,0,1,1,8-8A8,8,0,0,1,12,20Z"/><path id="路径_1388" data-name="路径 1388" class="cls-4" d="M16.24,9.17,13.41,12l2.83,2.83-1.41,1.41L12,13.41,9.17,16.24,7.76,14.83,10.59,12,7.76,9.17,9.17,7.76,12,10.59l2.83-2.83Z"/></g></g></svg>