<svg xmlns="http://www.w3.org/2000/svg" viewBox="0 0 60 60"><defs><style>.cls-1{fill:none;}.cls-2{fill:#f0efef;}.cls-3{fill:#d9d9d9;}.cls-4{fill:#a199a4;}.cls-5{fill:#b0aab3;}.cls-6{fill:#645e66;}.cls-7{fill:#7155a1;}.cls-8{fill:#8b72b1;}</style></defs><title>tuoguan</title><g id="图层_2" data-name="图层 2"><g id="图层_1-2" data-name="图层 1"><g id="组_586" data-name="组 586"><path id="路径_1392" data-name="路径 1392" class="cls-1" d="M0,0H60V60H0Z"/><g id="组_551" data-name="组 551"><g id="组_549" data-name="组 549"><g id="组_539" data-name="组 539"><path id="路径_1322" data-name="路径 1322" class="cls-2" d="M53.59,41.56H13.27V13.18L26.7,10l15.23,3.18h8.91a2.75,2.75,0,0,1,2.75,2.75h0Z"/></g><g id="组_540" data-name="组 540"><path id="路径_1324" data-name="路径 1324" class="cls-3" d="M50.7,13.18H45.93a2.75,2.75,0,0,1,2.75,2.75V41.56h4.77V15.93A2.75,2.75,0,0,0,50.7,13.18Z"/></g><g id="组_541" data-name="组 541"><path id="路径_1329" data-name="路径 1329" class="cls-4" d="M45.62,41.56H33.74V25.29a1.93,1.93,0,0,1,2-1.84H43.6a1.93,1.93,0,0,1,2,1.84Z"/></g><g id="组_542" data-name="组 542"><path id="路径_1330" data-name="路径 1330" class="cls-5" d="M24.48,36H18.19c-.45,0-.81-.27-.81-.61V24.16c0-.34.36-.61.81-.61h6.29c.44,0,.81.27.81.61V35.38A.74.74,0,0,1,24.48,36Z"/></g><g id="组_543" data-name="组 543"><path id="路径_1339" data-name="路径 1339" class="cls-6" d="M36,33.76h0a1.19,1.19,0,1,1,1.19-1.19A1.19,1.19,0,0,1,36,33.76Z"/></g></g><rect id="矩形_652" data-name="矩形 652" class="cls-7" x="2" y="32" width="9" height="14"/><path id="路径_1383" data-name="路径 1383" class="cls-8" d="M11,32V46.07s2.35,4.69,11.73,4.69,16.41-4.69,16.41-7a2.3,2.3,0,0,0-2.26-2.34H27.41s-4.69,0-4.69-4.69h7a2.35,2.35,0,0,0,0-4.69Z"/></g></g></g></g></svg>