<?xml version="1.0" encoding="utf-8"?>
<!-- Generator: Adobe Illustrator 23.0.0, SVG Export Plug-In . SVG Version: 6.00 Build 0)  -->
<svg version="1.1" id="图层_1" xmlns="http://www.w3.org/2000/svg" xmlns:xlink="http://www.w3.org/1999/xlink" x="0px" y="0px"
	 viewBox="0 0 1280 1024" style="enable-background:new 0 0 1280 1024;" xml:space="preserve">
<style type="text/css">
	.st0{fill-rule:evenodd;clip-rule:evenodd;fill:#231815;}
	.st1{fill-rule:evenodd;clip-rule:evenodd;fill:#231815;stroke:#231815;stroke-width:0.216;stroke-miterlimit:22.9256;}
	.st2{fill-rule:evenodd;clip-rule:evenodd;fill:none;stroke:#231815;stroke-width:2.126;stroke-miterlimit:22.9256;}
	.st3{fill:#231815;}
	.st4{font-family:'MicrosoftYaHei';}
	.st5{font-size:97.3022px;}
</style>
<polygon class="st0" points="91.52,788.13 7.48,788.13 7.48,908.8 24.68,908.8 24.68,861.57 91.52,861.57 91.52,846.62 
	24.73,846.62 24.73,805.5 91.52,805.5 "/>
<polygon class="st0" points="120.42,828.13 120.42,908.8 173.42,908.8 173.42,891.43 137.79,891.43 137.79,843.14 189.5,843.14 
	189.5,908.8 205.13,908.8 227.71,865.67 214.6,857.93 204.63,876.2 204.63,828.13 "/>
<polygon class="st0" points="369.73,828.13 369.73,908.8 422.73,908.8 422.73,891.43 387.1,891.43 387.1,843.14 438.81,843.14 
	438.81,908.8 454.44,908.8 477.02,865.67 463.91,857.93 453.93,876.2 453.93,828.13 "/>
<path class="st0" d="M256.5,828.13v80.67h84.09V788.13h-17.31v40H256.5L256.5,828.13z M271.43,843.07L271.43,843.07h51.86v48.48
	h-51.86V843.07z"/>
<polygon class="st0" points="619.48,828.13 619.48,908.8 672.48,908.8 672.48,891.43 636.85,891.43 636.85,843.14 688.56,843.14 
	688.56,908.8 704.19,908.8 726.77,865.67 713.66,857.93 703.69,876.2 703.69,828.13 "/>
<path class="st0" d="M506.25,828.13v80.67h84.09V788.13h-17.31v40H506.25L506.25,828.13z M521.18,843.07L521.18,843.07h51.86v48.48
	h-51.86V843.07z"/>
<rect x="758.38" y="860.4" class="st0" width="17.31" height="14.96"/>
<polygon class="st0" points="807.39,828.13 807.39,908.8 891.48,908.8 891.48,891.49 824.76,891.49 824.76,843.14 891.48,843.14 
	891.48,828.13 "/>
<path class="st0" d="M920.39,908.8h84.09v-80.67h-84.09V908.8L920.39,908.8z M989.47,891.49L989.47,891.49h-51.82v-48.35h51.82
	V891.49z"/>
<polygon class="st0" points="1033.44,828.13 1033.44,908.8 1050.7,908.8 1050.7,843.14 1067.96,843.14 1067.96,908.8 1085.16,908.8 
	1085.16,843.14 1102.47,843.14 1102.47,908.8 1117.48,908.8 1140.78,865.83 1127.4,857.82 1117.48,875.36 1117.48,828.13 "/>
<path class="st0" d="M245.05,241v83.29c0,0,20.73,4.78,51.2,4.78c30.48,0,51.21-4.78,51.21-4.78V241H245.05z"/>
<path class="st0" d="M581.03,241v83.29c0,0,20.73,4.78,51.21,4.78c30.48,0,51.2-4.78,51.2-4.78V241H581.03z"/>
<path class="st0" d="M917.23,241v83.29c0,0,20.73,4.78,51.21,4.78c30.48,0,51.2-4.78,51.2-4.78V241H917.23z"/>
<rect x="7.48" y="283.06" class="st0" width="95.62" height="110.63"/>
<rect x="7.48" y="456.06" class="st1" width="95.62" height="110.63"/>
<polygon class="st0" points="60.85,745.22 7.48,745.22 7.48,634.6 103.09,634.6 103.09,662.9 "/>
<path class="st0" d="M1019.78,513.65v-69.79c-30.52,3.97-65.35,5.38-102.41,1.25v68.54L800.34,737.11L683.57,513.65v-69.79
	c-30.52,3.97-65.35,5.38-102.41,1.25v68.54L459.89,745.22h104.46l66.78-137.89l67.45,137.89h97.51h8.49h95.97l66.78-137.89
	l67.45,137.89h106L1019.78,513.65z"/>
<path class="st0" d="M347.6,443.86c-30.54,3.97-65.39,5.39-102.47,1.25v41.36H152.6v92.48h57.66l-86.35,166.28h256.07l71.77-137.89
	h-83.42l-33.17,62.45h-70.81l43.62-90.84h143.78v-92.48H347.6V443.86z"/>
<path class="st0" d="M1136.45,412.51c0,0-166.96,78.96-336.14,0V303.45c0,0,149.4,98.01,336.14,0V412.51z"/>
<path class="st0" d="M800.31,412.51c0,0-166.95,78.96-336.14,0V303.45c0,0,149.4,98.01,336.14,0V412.51z"/>
<path class="st0" d="M464.17,412.51c0,0-166.95,78.96-336.14,0V303.45c0,0,149.4,98.01,336.14,0V412.51z"/>
<ellipse transform="matrix(0.9732 -0.2298 0.2298 0.9732 -4.8638 283.7759)" class="st2" cx="1216.19" cy="162.77" rx="60.81" ry="60.81"/>
<text transform="matrix(1 0 0 1 1186.4716 202.687)" class="st3 st4 st5">R</text>
</svg>
