<svg id="check_1228317_easyicon.net" xmlns="http://www.w3.org/2000/svg" width="55.842" height="75.321" viewBox="0 0 55.842 75.321">
  <defs>
    <style>
      .cls-1 {
        fill: #23a24d;
      }

      .cls-2 {
        fill: #1f7f3c;
      }

      .cls-3 {
        fill: #0d441a;
      }

      .cls-4 {
        fill: #e7eced;
      }

      .cls-5 {
        fill: #6c797a;
      }

      .cls-6 {
        fill: #17632b;
      }
    </style>
  </defs>
  <path id="路径_1263" data-name="路径 1263" class="cls-1" d="M0,0V75.321H44.154V0ZM0,0"/>
  <path id="路径_1264" data-name="路径 1264" class="cls-2" d="M59.983,41.862a2.669,2.669,0,0,1,2.68-2.657h.609a14.265,14.265,0,0,1-2.3-3.9H43.411a14.309,14.309,0,0,1-8.1,8.1V67.775c0-8.606,7.558-15.584,16.883-15.584a17.93,17.93,0,0,1,7.792,1.767Zm0,0" transform="translate(-30.114 -30.114)"/>
  <path id="路径_1265" data-name="路径 1265" class="cls-2" d="M63.346,282.621a.981.981,0,0,0-1.591-.044l-.016.021a.977.977,0,0,1-1.756-.579v-12.2a17.929,17.929,0,0,1-7.792,1.767c-9.324,0-16.883-6.977-16.883-15.584v24.364a14.309,14.309,0,0,1,8.1,8.1h17.56a14.256,14.256,0,0,1,3.093-4.774Zm0,0" transform="translate(-30.114 -218.339)"/>
  <path id="路径_1266" data-name="路径 1266" class="cls-3" d="M142.541,366.088a1.3,1.3,0,0,1-1.3-1.3V354.4a1.3,1.3,0,1,1,2.6,0V364.79A1.3,1.3,0,0,1,142.541,366.088Zm0,0" transform="translate(-120.464 -301.156)"/>
  <path id="路径_1267" data-name="路径 1267" class="cls-3" d="M142.541,83.607a1.3,1.3,0,0,1-1.3-1.3V71.919a1.3,1.3,0,1,1,2.6,0V82.309A1.3,1.3,0,0,1,142.541,83.607Zm0,0" transform="translate(-120.464 -60.232)"/>
  <path id="路径_1268" data-name="路径 1268" class="cls-4" d="M223.814,61.793h-18.1a2.669,2.669,0,0,0-2.68,2.657v51.931a.976.976,0,0,0,1.754.579l.016-.021a.979.979,0,0,1,1.591.044l1.022,1.519a.979.979,0,0,0,1.622,0l.976-1.449a.979.979,0,0,1,1.622,0l.975,1.449a.979.979,0,0,0,1.622,0l.975-1.449a.979.979,0,0,1,1.622,0l.975,1.449a.979.979,0,0,0,1.622,0l.975-1.449a.979.979,0,0,1,1.622,0L223,118.5a.979.979,0,0,0,1.622,0l.975-1.449a.969.969,0,0,1,1.6-.026.977.977,0,0,0,1.8-.51V64.45a2.669,2.669,0,0,0-2.68-2.657Zm0,0" transform="translate(-173.166 -52.702)"/>
  <g id="组_333" data-name="组 333" transform="translate(33.764 18.181)">
    <path id="路径_1269" data-name="路径 1269" class="cls-5" d="M239.905,126.183h-9.09a1.3,1.3,0,1,1,0-2.6h9.09a1.3,1.3,0,1,1,0,2.6Zm0,0" transform="translate(-229.516 -123.586)"/>
    <path id="路径_1270" data-name="路径 1270" class="cls-5" d="M329.218,126.183h-1.3a1.3,1.3,0,1,1,0-2.6h1.3a1.3,1.3,0,0,1,0,2.6Zm0,0" transform="translate(-312.336 -123.586)"/>
    <path id="路径_1271" data-name="路径 1271" class="cls-5" d="M284.045,170.32h-9.09a1.3,1.3,0,1,1,0-2.6h9.09a1.3,1.3,0,0,1,0,2.6Zm0,0" transform="translate(-267.162 -161.23)"/>
    <path id="路径_1272" data-name="路径 1272" class="cls-5" d="M232.113,170.32h-1.3a1.3,1.3,0,0,1,0-2.6h1.3a1.3,1.3,0,0,1,0,2.6Zm0,0" transform="translate(-229.516 -161.23)"/>
    <path id="路径_1273" data-name="路径 1273" class="cls-5" d="M239.905,214.461h-9.09a1.3,1.3,0,1,1,0-2.6h9.09a1.3,1.3,0,1,1,0,2.6Zm0,0" transform="translate(-229.516 -198.877)"/>
    <path id="路径_1274" data-name="路径 1274" class="cls-5" d="M329.218,214.461h-1.3a1.3,1.3,0,1,1,0-2.6h1.3a1.3,1.3,0,0,1,0,2.6Zm0,0" transform="translate(-312.336 -198.877)"/>
    <path id="路径_1275" data-name="路径 1275" class="cls-5" d="M284.045,258.6h-9.09a1.3,1.3,0,1,1,0-2.6h9.09a1.3,1.3,0,0,1,0,2.6Zm0,0" transform="translate(-267.162 -236.52)"/>
    <path id="路径_1276" data-name="路径 1276" class="cls-5" d="M232.113,258.6h-1.3a1.3,1.3,0,1,1,0-2.6h1.3a1.3,1.3,0,1,1,0,2.6Zm0,0" transform="translate(-229.516 -236.52)"/>
    <path id="路径_1277" data-name="路径 1277" class="cls-5" d="M239.905,302.734h-9.09a1.3,1.3,0,1,1,0-2.6h9.09a1.3,1.3,0,1,1,0,2.6Zm0,0" transform="translate(-229.516 -274.164)"/>
    <path id="路径_1278" data-name="路径 1278" class="cls-5" d="M329.218,302.734h-1.3a1.3,1.3,0,1,1,0-2.6h1.3a1.3,1.3,0,0,1,0,2.6Zm0,0" transform="translate(-312.336 -274.164)"/>
    <path id="路径_1279" data-name="路径 1279" class="cls-5" d="M284.045,346.875h-9.09a1.3,1.3,0,1,1,0-2.6h9.09a1.3,1.3,0,0,1,0,2.6Zm0,0" transform="translate(-267.162 -311.811)"/>
    <path id="路径_1280" data-name="路径 1280" class="cls-5" d="M232.113,346.875h-1.3a1.3,1.3,0,1,1,0-2.6h1.3a1.3,1.3,0,1,1,0,2.6Zm0,0" transform="translate(-229.516 -311.811)"/>
  </g>
  <path id="路径_1281" data-name="路径 1281" class="cls-6" d="M59.983,151.837a17.93,17.93,0,0,0-7.792-1.767c-9.324,0-16.883,6.977-16.883,15.584s7.558,15.584,16.883,15.584a17.93,17.93,0,0,0,7.792-1.767Zm0,0" transform="translate(-30.114 -127.993)"/>
  <path id="路径_1282" data-name="路径 1282" class="cls-3" d="M59.983,197.189a9.11,9.11,0,0,0-5.312-1.657,1.028,1.028,0,0,1-.815-.425,2.1,2.1,0,0,0-2.548-.723,9.236,9.236,0,0,0-2.778,2.108,1.018,1.018,0,0,1-.718.318c-3.044.111-4.143,1.371-4.539,2.165a1.335,1.335,0,0,1-1.169.794,1.847,1.847,0,0,1-1.552-.844l-2.83-3.626a14.463,14.463,0,0,0,.043,16.066l2.786-3.717A1.842,1.842,0,0,1,42.1,206.8a1.331,1.331,0,0,1,1.169.792c.4.795,1.495,2.054,4.542,2.166a1.008,1.008,0,0,1,.715.318,8.992,8.992,0,0,0,2.935,2.174,2.037,2.037,0,0,0,2.391-.788,1.031,1.031,0,0,1,.817-.426,9.11,9.11,0,0,0,5.312-1.657Zm0,0" transform="translate(-30.114 -165.637)"/>
</svg>
