<svg xmlns="http://www.w3.org/2000/svg" viewBox="0 0 106 74"><defs><style>.cls-1{fill:#f0efef;}.cls-2{fill:#d9d9d9;}.cls-3{fill:#a29aa5;}.cls-4{fill:#b1abb4;}.cls-5{fill:#655e67;}.cls-6{fill:#7e57c2;}.cls-7{fill:#9575cd;}.cls-8{fill:none;}.cls-9{fill:#66bb6a;}.cls-10,.cls-11{fill:#fff;}.cls-10{opacity:0.2;isolation:isolate;}</style></defs><title>资源 1</title><g id="图层_2" data-name="图层 2"><g id="图层_1-2" data-name="图层 1"><g id="组_551" data-name="组 551"><g id="组_549" data-name="组 549"><g id="组_539" data-name="组 539"><path id="路径_1322" data-name="路径 1322" class="cls-1" d="M85.76,52.46h-67V5.28L41.07,0,66.38,5.28H81.19a4.58,4.58,0,0,1,4.57,4.58Z"/></g><g id="组_540" data-name="组 540"><path id="路径_1324" data-name="路径 1324" class="cls-2" d="M81,5.28H73a4.57,4.57,0,0,1,4.57,4.58v42.6h7.93V9.86A4.59,4.59,0,0,0,81,5.28Z"/></g><g id="组_541" data-name="组 541"><path id="路径_1329" data-name="路径 1329" class="cls-3" d="M72.52,52.46H52.77v-27a3.22,3.22,0,0,1,3.36-3.07h13a3.22,3.22,0,0,1,3.36,3.07Z"/></g><g id="组_542" data-name="组 542"><path id="路径_1330" data-name="路径 1330" class="cls-4" d="M37.37,43.19H26.91c-.74,0-1.34-.45-1.34-1V23.54c0-.56.6-1,1.34-1H37.37c.75,0,1.35.45,1.35,1V42.19A1.23,1.23,0,0,1,37.37,43.19Z"/></g><g id="组_543" data-name="组 543"><path id="路径_1339" data-name="路径 1339" class="cls-5" d="M56.53,39.5h0a2,2,0,1,1,2-2,2,2,0,0,1-2,2h0Z"/></g></g><rect id="矩形_652" data-name="矩形 652" class="cls-6" y="36.56" width="15" height="23"/><path id="路径_1383" data-name="路径 1383" class="cls-7" d="M15,36.57V60s3.9,7.8,19.5,7.8S61.74,60,61.74,56.06s-3.9-3.9-3.9-3.9H42.25s-7.8,0-7.8-7.8h11.7s3.9,0,3.9-3.9-3.9-3.9-3.9-3.9Z"/></g><g id="组_552" data-name="组 552"><rect id="矩形_653" data-name="矩形 653" class="cls-8" x="66" y="34" width="40" height="40"/><path id="_58128982_shock_color_grid" data-name=" 58128982 shock_color grid" class="cls-9" d="M86.29,37.38A16.91,16.91,0,1,0,103.2,54.29h0A16.93,16.93,0,0,0,86.29,37.38Z"/><path id="路径_1384" data-name="路径 1384" class="cls-10" d="M86.29,37.38A16.91,16.91,0,1,0,103.2,54.29h0A17,17,0,0,0,86.29,37.38Zm0,30.44A13.53,13.53,0,1,1,99.82,54.29h0A13.55,13.55,0,0,1,86.29,67.82Z"/><path id="_58142322_shock_color_grid" data-name=" 58142322 shock_color grid" class="cls-11" d="M92.42,48.22l-8,8L80.16,52,77.84,54.3l6.57,6.58L94.74,50.55Z"/></g></g></g></svg>