<svg id="图层_1" data-name="图层 1" xmlns="http://www.w3.org/2000/svg" viewBox="0 0 300 300"><defs><style>.cls-1,.cls-2{fill:#231815;}.cls-1,.cls-3{fill-rule:evenodd;}.cls-3{fill:#da358c;}</style></defs><title>logo</title><path class="cls-1" d="M110,119.39h-9V115H96.64v8.62h9.16V128H96.64v-4.38H92.26V128H88v4.25h4.25v8.63H101v4.78h4.78v-4.78h8.62V128H110Zm-9,17.25H96.64v-4.38H101Zm9,0H105.8v-4.38H110Zm26.42-4.38h4.38V128h-4.38v-4.38h8.76v-4.24h-8.76V115h-4.38v4.38h-8.63v4.24h8.63V128H127.7v4.25h4.38v4.38H118.67v4.25h9v4.78h4.38v-4.78h4.38v4.78h4.38v-4.78h8.63v-4.25h-13Zm83.5-8.63V128h4.38v-8.62H211.06V115h-4.51v4.38h-13V128h4.38v-4.38Zm-39.69,0H162.88V128h13v12.88h8.62v-4.25h-4.24ZM79.38,132.26H75v4.38h4.38v22h4.25V128H79.38Zm109.51,0h4.65V128h-4.65ZM220,140.89V128h-22v22h4.25v8.63h8.89v4.38h4.25v-8.63h-8.76v-4.38H220v-4.38h-8.9v-4.78Zm-8.9-8.63h4.25v4.38h-4.25Zm-4.51,13.41h-4.38v-4.78h4.38Zm0-9h-4.38v-4.38h4.38Zm-43.67-4.38H158.1v8.63h-4.25v4.78h9Zm8.76,4.38h-4.52v13.41h4.52ZM88,150.05h13v-4.38H88Zm26.41-4.38H110v4.38h4.38Zm9,0v4.38h4.25v-4.38Zm8.63,4.38h4.38v-4.38h-4.38ZM105.8,167.71V154.43H110v-4.38h-9v17.66Zm21.9-9h4.38v9h4.38v-9h8.76v-8.63h-4.38v4.38h-8.76v-4.38H127.7Zm39.42-8.63h-4.24v4.38h4.24Zm21.77,4.38h4.65v13.28h4.38V150.05h-9Zm35.45,8.63v-13H220v13ZM88,158.68h4.25v4.38h4.38v-8.63H88Zm26.41,4.38v-8.63H110v8.63Zm61.47-4.38h-13v-4.25H158.1v8.63h22.17v-8.63h-4.38Zm-52.44,4.38h4.25v-4.38h-4.25ZM88,167.71h4.25v-4.65H88Zm30.66,0h4.78v-4.65h-4.78Zm22.17,0h4.38v-4.65h-4.38Z"/><path class="cls-2" d="M79.15,174.38h3.23a3.75,3.75,0,0,1,1.45.24,2.42,2.42,0,0,1,.9.61,2.08,2.08,0,0,1,.47.83,3.32,3.32,0,0,1,0,1.77,2.19,2.19,0,0,1-.47.84,2.55,2.55,0,0,1-.9.61,3.75,3.75,0,0,1-1.45.24h-2v4H79.15Zm1.24,4.05H82a4.37,4.37,0,0,0,.72-.06,1.74,1.74,0,0,0,.63-.22,1.12,1.12,0,0,0,.45-.44A1.55,1.55,0,0,0,84,177a1.5,1.5,0,0,0-.17-.76,1.08,1.08,0,0,0-.45-.45,2,2,0,0,0-.63-.22,5.81,5.81,0,0,0-.72-.05H80.39Z"/><path class="cls-2" d="M93.74,174.38H95v9.19H93.74Z"/><path class="cls-2" d="M106.37,178.74l-3.09-4.36h1.6l2.38,3.53,2.37-3.53h1.56l-3.07,4.35,3.38,4.84h-1.64l-2.63-4-2.65,4H103Z"/><path class="cls-2" d="M119.55,174.38h5.93v1.16h-4.69v2.74h4.36v1.17h-4.36v3h4.92v1.17h-6.16Z"/><path class="cls-2" d="M134.37,174.38h1.25v8h4.22v1.17h-5.47Z"/><path class="cls-2" d="M148,174.38h3.23a3.81,3.81,0,0,1,1.46.24,2.42,2.42,0,0,1,.9.61,2,2,0,0,1,.46.83,3.09,3.09,0,0,1,.13.89,2.5,2.5,0,0,1-.15.85,2.67,2.67,0,0,1-.45.74,2.5,2.5,0,0,1-.72.55,2.24,2.24,0,0,1-.94.28l2.61,4.2H153l-2.34-4h-1.39v4H148Zm1.25,4.05h1.63a4.4,4.4,0,0,0,.73-.06,1.89,1.89,0,0,0,.63-.22,1.12,1.12,0,0,0,.45-.44,1.55,1.55,0,0,0,.17-.76,1.5,1.5,0,0,0-.17-.76,1.08,1.08,0,0,0-.45-.45,2.14,2.14,0,0,0-.63-.22,5.84,5.84,0,0,0-.73-.05h-1.63Z"/><path class="cls-2" d="M167.05,183.8a4.93,4.93,0,0,1-1.94-.37,4.57,4.57,0,0,1-1.51-1,4.69,4.69,0,0,1-1-1.53,5.39,5.39,0,0,1,0-3.82,4.69,4.69,0,0,1,1-1.53,4.57,4.57,0,0,1,1.51-1,5.12,5.12,0,0,1,1.94-.37,5.07,5.07,0,0,1,1.93.37,4.57,4.57,0,0,1,1.51,1,4.69,4.69,0,0,1,1,1.53,5.25,5.25,0,0,1,0,3.82,4.69,4.69,0,0,1-1,1.53,4.57,4.57,0,0,1-1.51,1A4.88,4.88,0,0,1,167.05,183.8Zm0-1.17a3.32,3.32,0,0,0,1.43-.29,3.56,3.56,0,0,0,1.09-.78,3.61,3.61,0,0,0,.7-1.17,4.32,4.32,0,0,0,0-2.84,3.39,3.39,0,0,0-1.79-2,3.43,3.43,0,0,0-3.95.79,3.4,3.4,0,0,0-.7,1.16,4.16,4.16,0,0,0,0,2.84,3.32,3.32,0,0,0,1.79,2A3.29,3.29,0,0,0,167.05,182.63Z"/><path class="cls-2" d="M184.74,183.8a4.88,4.88,0,0,1-1.93-.37,4.62,4.62,0,0,1-1.52-1,4.84,4.84,0,0,1-1-1.53,5.25,5.25,0,0,1,0-3.82,4.84,4.84,0,0,1,1-1.53,4.62,4.62,0,0,1,1.52-1,5.07,5.07,0,0,1,1.93-.37,5.12,5.12,0,0,1,1.94.37,4.56,4.56,0,0,1,2.5,2.55,5.39,5.39,0,0,1,0,3.82,4.56,4.56,0,0,1-2.5,2.55A4.93,4.93,0,0,1,184.74,183.8Zm0-1.17a3.29,3.29,0,0,0,1.43-.29,3.32,3.32,0,0,0,1.79-2,4.16,4.16,0,0,0,0-2.84,3.4,3.4,0,0,0-.7-1.16,3.54,3.54,0,0,0-3.95-.79,3.39,3.39,0,0,0-1.79,2,4.32,4.32,0,0,0,0,2.84,3.61,3.61,0,0,0,.7,1.17,3.56,3.56,0,0,0,1.09.78A3.32,3.32,0,0,0,184.74,182.63Z"/><path class="cls-2" d="M198.13,174.38H200l2.92,7H203l2.89-7h1.86v9.19h-1.25V176h0l-3.11,7.56h-.83L199.4,176h0v7.56h-1.24Z"/><path class="cls-3" d="M214.91,173.93H225V184H214.91Z"/></svg>