<svg id="图层_1" data-name="图层 1" xmlns="http://www.w3.org/2000/svg" viewBox="0 0 1000 1000"><defs><style>.cls-1{fill:#ffd9b6;}.cls-2{fill:#fda959;}.cls-3{fill:#c66626;}.cls-4{fill:#fff;}.cls-5{fill:#a34200;}.cls-6{font-size:80px;font-family:AlibabaPuHuiTi-Bold, Alibaba PuHuiTi;font-weight:700;}</style></defs><title>画板 9</title><path class="cls-1" d="M527.5,881.44a290.5,290.5,0,1,1,205.42-85.09A288.56,288.56,0,0,1,527.5,881.44Zm.72-506.93c-119.47,0-216.67,97.2-216.67,216.67s97.2,216.67,216.67,216.67,216.67-97.2,216.67-216.67S647.69,374.51,528.22,374.51Z"/><path class="cls-2" d="M526.22,280.05C358.2,280.05,222,416.26,222,584.27S358.2,888.49,526.22,888.49s304.22-136.2,304.22-304.22S694.23,280.05,526.22,280.05Zm.15,571.63c-147.52,0-267.1-119.58-267.1-267.1s119.58-267.09,267.1-267.09,267.1,119.58,267.1,267.09S673.88,851.68,526.37,851.68Z"/><polyline class="cls-3" points="224.46 363.02 206.08 281.57 290.01 272.35"/><polyline class="cls-3" points="434.15 230.3 368.4 178.83 324.15 250.74"/><path class="cls-2" d="M169.9,318.42l79.56,2.71,13.34-135.2L386.28,233.7l30.16-71.39L475,313s-61,20-99,46c-40.61,27.78-73,70-73,70Z"/><polyline class="cls-1" points="262.8 185.93 386.27 233.7 416.44 162.31 478 320 391 378"/><path class="cls-4" d="M337.1,350.42A47.83,47.83,0,1,1,362.62,343,47.63,47.63,0,0,1,337.1,350.42Z"/><path class="cls-5" d="M423.51,302.85l-10.34-.61c8-18.65,8.13-37.3.3-52.5l10.37-5.05C432.52,261.53,432.4,282.18,423.51,302.85Z"/><path class="cls-5" d="M242.68,353.49l5.36-8.86c12.76,15.8,29.2,24.6,46.29,24.77L294,380.93C275,380.74,256.81,371,242.68,353.49Z"/><text class="cls-6" transform="translate(332.24 337.8) rotate(-33.91)">3</text><rect class="cls-5" x="278" y="215.16" width="22.26" height="22.26" transform="matrix(0.99, 0.17, -0.17, 0.99, 42.99, -46.14)"/></svg>