<svg id="图层_1" data-name="图层 1" xmlns="http://www.w3.org/2000/svg" viewBox="0 0 1000 1000"><defs><style>.cls-1{fill:#ff7900;}.cls-2{fill:#fff3c0;}.cls-3{fill:#ffd900;}.cls-4{fill:#ffbf31;}.cls-5{fill:#fff;}</style></defs><title>画板 7</title><path class="cls-1" d="M521.71,280.05c-168.15,0-304.47,136.32-304.47,304.48S353.56,889,521.71,889,826.19,752.68,826.19,584.53,689.87,280.05,521.71,280.05Zm.15,572.11c-147.64,0-267.32-119.68-267.32-267.32S374.22,317.52,521.86,317.52,789.19,437.2,789.19,584.84,669.5,852.16,521.86,852.16Z"/><path class="cls-2" d="M521.71,860.93a276.41,276.41,0,1,1,195.45-81A274.55,274.55,0,0,1,521.71,860.93Zm.69-482.33c-113.68,0-206.16,92.48-206.16,206.16S408.72,790.91,522.4,790.91s206.16-92.48,206.16-206.15S636.08,378.6,522.4,378.6Z"/><path class="cls-3" d="M521.71,295.07c-159.86,0-289.46,129.59-289.46,289.46S361.85,874,521.71,874,811.17,744.39,811.17,584.53,681.58,295.07,521.71,295.07ZM521.85,839C381.5,839,267.72,725.18,267.72,584.82S381.5,330.68,521.85,330.68,776,444.47,776,584.82,662.21,839,521.85,839Z"/><polyline class="cls-4" points="232.46 363.02 214.08 281.57 298.01 272.35"/><polyline class="cls-4" points="442.15 230.3 376.4 178.83 332.15 250.74"/><path class="cls-3" d="M177.9,318.42l79.56,2.71,13.34-135.2L394.28,233.7l30.16-71.39L483,313s-61,20-99,46c-40.61,27.78-73,70-73,70Z"/><polyline class="cls-2" points="270.8 185.93 394.27 233.7 424.44 162.31 492 334 399 378"/><path class="cls-5" d="M345.1,350.42A47.83,47.83,0,1,1,370.62,343,47.63,47.63,0,0,1,345.1,350.42Z"/><path class="cls-1" d="M431.51,302.85l-10.34-.61c8-18.65,8.13-37.3.3-52.5l10.37-5.05C440.52,261.53,440.4,282.18,431.51,302.85Z"/><path class="cls-1" d="M250.68,353.49l5.36-8.86c12.76,15.8,29.2,24.6,46.29,24.77L302,380.93C283,380.74,264.81,371,250.68,353.49Z"/><path d="M335,290.72l-10.38,9.8-5.38-8.5,12.64-12.1,7.59-4.81,30.6,48.35-10.24,6.48Z"/><rect class="cls-1" x="286" y="215.16" width="22.26" height="22.26" transform="matrix(0.99, 0.17, -0.17, 0.99, 43.11, -47.51)"/></svg>