<svg id="图层_1" data-name="图层 1" xmlns="http://www.w3.org/2000/svg" viewBox="0 0 1000 1000"><defs><style>.cls-1{fill:#efefef;}.cls-2{fill:#cecfca;}.cls-3{fill:#a0a0a0;}.cls-4{fill:#fff;}.cls-5{fill:#848484;}.cls-6{font-size:80px;font-family:AlibabaPuHuiTi-Bold, Alibaba PuHuiTi;font-weight:700;}</style></defs><title>画板 8</title><path class="cls-1" d="M504.5,874.49a290.48,290.48,0,1,1,205.42-85.08A288.59,288.59,0,0,1,504.5,874.49Zm.72-506.93c-119.47,0-216.67,97.2-216.67,216.67S385.75,800.9,505.22,800.9s216.67-97.2,216.67-216.67S624.69,367.56,505.22,367.56Z"/><path class="cls-2" d="M503.22,280.05C335.2,280.05,199,416.26,199,584.27S335.2,888.49,503.22,888.49s304.22-136.2,304.22-304.22S671.23,280.05,503.22,280.05Zm.15,571.63c-147.52,0-267.1-119.58-267.1-267.1s119.58-267.09,267.1-267.09,267.1,119.58,267.1,267.09S650.88,851.68,503.37,851.68Z"/><polyline class="cls-3" points="207.46 363.02 189.08 281.57 273.01 272.35"/><polyline class="cls-3" points="417.15 230.3 351.4 178.83 307.15 250.74"/><path class="cls-2" d="M152.9,318.42l79.56,2.71,13.34-135.2L369.28,233.7l30.16-71.39L458,313s-61,20-99,46c-40.61,27.78-73,70-73,70Z"/><polyline class="cls-1" points="245.8 185.93 369.27 233.7 399.44 162.31 461 320 374 378"/><path class="cls-4" d="M320.1,350.42A47.83,47.83,0,1,1,345.62,343,47.63,47.63,0,0,1,320.1,350.42Z"/><path class="cls-5" d="M406.51,302.85l-10.34-.61c8-18.65,8.13-37.3.3-52.5l10.37-5.05C415.52,261.53,415.4,282.18,406.51,302.85Z"/><path class="cls-5" d="M225.68,353.49l5.36-8.86c12.76,15.8,29.2,24.6,46.29,24.77L277,380.93C258,380.74,239.81,371,225.68,353.49Z"/><text class="cls-6" transform="translate(315.24 337.8) rotate(-33.91)">2</text><rect class="cls-5" x="261" y="215.16" width="22.26" height="22.26" transform="matrix(0.99, 0.17, -0.17, 0.99, 42.74, -43.23)"/></svg>